<svg clip-rule="evenodd" fill-rule="evenodd" stroke-linecap="round" stroke-linejoin="round" viewBox="0 0 1920 1280" xmlns="http://www.w3.org/2000/svg"><path d="m1873.81 312.26c-160.66-7.003-309.82-3.508-407.27 5.225-52.37 1.697-170.39 18.545-211.47 41.184-60.07 33.108-41.72 64.953-48.51 86.063 24.86 51.744 138.94 87.326 218.45 84.793 63.38 2.371 129.68-4.144 184.22-40.652 41.01-23.078 115.31-55.058 98.07 21.957.38 134.376-90.77 306.692-132.41 368.899-47.63 65.948-126.72 145.081-244.37 212.121-112.08 48.15-320.84 77.84-448.695 27.63-127.86-50.21-158.641-107.73-204.694-158.55-58.212-76.528-109.429-172.825-164.404-264.693-6.07-44.435.745-84.595 2.537-128.739 1.601-42.758 8.009-111.984 57.723-65.152 96.854 44.456 186.853 53.905 280.769 36.751 67.481-17.485 153.194-40.815 188.904-103.172-156.788-129.753-427.953-129.368-551.722 40.503-27.149 40.037-45.798 77.436-67.223 111.657-46.188 73.771-88.442 136.537-130.847 207.235-105.403 158.717-124.99 188.741-243.1365 343.94-3.4612-19.1-6.5764-181.875 1.8925-193.539 96.746-153.078 221.859-353.9 328.28-514.432 51.024-72.891 84.347-126.538 142.901-193.336 60.706-72.179 186.981-81.788 260.339-80.702 73.793-1.627 151.178 13.885 217.696 42.952 49.88 39.839 74.59 75.502 86.22 172.248.52 76.597 5.14 118.993-12.91 224.515-24.31 114.669-181.45 139.594-259.5 145.997-43.27 2.809-143.439-16.765-103.995 46.451 92.355 103.932 188.34 141.517 317.965 142.386 97.91-7.874 137.42-17.721 205.28-32.868 96.94-23.259 197.07-62.929 265.26-137.466 32.53-46.62-47.77-27.8-76.7-30.375-75.09-4.365-152.72-23.704-217.45-63.41-59-34.615-60.48-103.035-66.84-167.921-1.56-98.063-1.5-183.082 67.03-286.186 76.66-88.352 436.37-73.014 668.61-71.847-.37 42.408 1.09 80.347 0 170.533z" stroke="#000" stroke-linecap="round" stroke-linejoin="round" stroke-width="1.02"/></svg>